# xmcd
#
# Track frame offsets:
#	182
#	10785
#	23970
#	42827
#	56945
#	70317
#	79930
#	91002
#	101660
#	112202
#	126720
#	140685
#	151257
#	164030
#	176990
#	191157
#	204067
#	213985
#	225985
#	240555
#	252695
#	263802
#	273162
#	284602
#	294880
#	306935
#	320325
#	329927
#
# Disc length: 4535 seconds
#
# Revision: 12
# Processed by: cddbd v1.5.2PL0 Copyright (c) Steve Scherf et al.
# Submitted via: EZCDAudioConverter 2.1.7.1
#
DISCID=b111b51c
DTITLE=V/A - Nuggets II 4/4
DYEAR=2001
DGENRE=
TTITLE0=Pretty Things - Rosalyn
TTITLE1=The Atlantics - Come On
TTITLE2=Dantalian's Chariot - The Madman Running Through The Fields
TTITLE3=The Creation - How Does It Feel To Feel
TTITLE4=The Mops - I'm Just A Mops
TTITLE5=Downliners Sect - Why Don't You Smile Now
TTITLE6=Ugly Ducklings - Nothin'
TTITLE7=Los Shakers - Break It All
TTITLE8=Timon - The Bitter Thoughts Of Little Jane
TTITLE9=The Outsiders - Touch
TTITLE10=Tintern Abbey - Vacuum Cleaner
TTITLE11=Thor's Hammer - My Life
TTITLE12=The Wheels - Bad Little Woman
TTITLE13=Pandamonium - No Presents For Me
TTITLE14=Os Mutantes - Bat Macumba
TTITLE15=Winston's Fumbs - Real Crazy Apartment
TTITLE16=The Smoke (NZ) - No More Now
TTITLE17=The Birds - No Good Without You
TTITLE18=The Zipps - Kicks and Chicks
TTITLE19=Acid Gallery - Dance Around The Maypole
TTITLE20=The Fairies - Get Yourself Home
TTITLE21=The Chants R&B - I'm Your Witchdoctor
TTITLE22=The Boots - But You'll Never Do It Babe
TTITLE23=The Majority - One Third
TTITLE24=Kaleidoscope - Flight From Ashiya
TTITLE25=Small Faces - Here Come The Nice
TTITLE26=The Rattles - It's My Fault
TTITLE27=Blossom Toes - When The Alarm Clock Rings
EXTD=
EXTT0=
EXTT1=
EXTT2=
EXTT3=
EXTT4=
EXTT5=
EXTT6=
EXTT7=
EXTT8=
EXTT9=
EXTT10=
EXTT11=
EXTT12=
EXTT13=
EXTT14=
EXTT15=
EXTT16=
EXTT17=
EXTT18=
EXTT19=
EXTT20=
EXTT21=
EXTT22=
EXTT23=
EXTT24=
EXTT25=
EXTT26=
EXTT27=
PLAYORDER=
